Coordinates
version=1
nRows=16
nColumns=36
inDegrees=yes

Units are S.I. units (second, meters, Newtons, ...)
If the header above contains a line with 'inDegrees', this indicates whether rotational values are in degrees (yes) or radians (no).

endheader
time	pelvis_tilt	pelvis_list	pelvis_rotation	pelvis_tx	pelvis_ty	pelvis_tz	hip_flexion_r	hip_adduction_r	hip_rotation_r	knee_angle_r	knee_angle_r_beta	ankle_angle_r	subtalar_angle_r	mtp_angle_r	hip_flexion_l	hip_adduction_l	hip_rotation_l	knee_angle_l	knee_angle_l_beta	ankle_angle_l	subtalar_angle_l	mtp_angle_l	lumbar_extension	lumbar_bending	lumbar_rotation	arm_flex_r	arm_add_r	arm_rot_r	elbow_flex_r	pro_sup_r	arm_flex_l	arm_add_l	arm_rot_l	elbow_flex_l	pro_sup_l
      0.00000000	    -89.68210085	      9.61920372	   -180.66524509	      0.92610566	      0.45113466	     -0.60898979	      0.77751432	      6.26519154	    -13.42694325	      2.03819365	      0.03557319	      9.05264939	      7.37681610	     -7.67371971	      4.33134207	    -20.26456131	    -30.57088064	     18.41300247	      0.32136752	     29.78525569	     26.51954461	     -7.67371971	    -11.58076754	     12.21267255	      0.90151248	      2.81234880	     -6.54192037	    -19.53205304	     29.81172507	    101.40996788	      1.26255758	     -5.08877778	     -8.28798428	     30.76937700	    105.10127582
      0.00833333	    -89.69460727	      8.89152424	   -180.75053711	      0.92624628	      0.45041206	     -0.60833923	      0.77509627	      5.24939239	    -13.08367170	      2.00807350	      0.03504749	      9.22042633	      7.84884120	     -7.58334961	      4.00685162	    -19.00145294	    -29.93614704	     17.55862699	      0.30645585	     29.12713118	     25.26901031	     -7.58334961	    -11.93491368	     11.42091288	      0.69212356	      2.96099630	     -6.47266434	    -19.57063652	     29.81175414	    101.67417883	      1.09165301	     -5.09645900	     -9.12098883	     31.16336689	    105.98563393
      0.01666667	    -89.69165877	      8.91602521	   -180.53325620	      0.92625096	      0.44989901	     -0.60790244	      0.76751413	      5.23408982	    -13.14023327	      1.92698301	      0.03363220	      9.19488831	      7.87173768	     -7.55152029	      4.22738924	    -19.03727058	    -29.68250350	     17.74216805	      0.30965925	     29.06341832	     25.00704684	     -7.55152029	    -11.98889484	     11.48924937	      0.54126362	      2.85041308	     -6.50378228	    -19.65495951	     29.91071206	    101.46329108	      1.02222426	     -5.08712718	     -9.16889533	     31.28598478	    105.45553235
      0.02500000	    -89.68669854	      8.86785763	   -180.59110437	      0.92643406	      0.44951419	     -0.60786004	      0.81361063	      5.16400828	    -13.10055751	      1.96542298	      0.03430310	      9.18663366	      7.91259201	     -7.53330314	      4.23394304	    -18.94105983	    -29.63892921	     17.73362268	      0.30951010	     28.99685261	     24.83995926	     -7.53330314	    -12.08644489	     11.42598207	      0.65266544	      2.73347462	     -6.54921054	    -19.76073079	     29.97544665	    101.75848040	      0.96786432	     -5.11886047	     -9.01529480	     31.28159910	    105.88660859
      0.03333333	    -89.68792264	      8.92651491	   -180.35693420	      0.92687638	      0.44895905	     -0.60782029	      0.95797167	      5.25929644	    -13.74366711	      2.11812508	      0.03696826	      9.08785013	      8.04465846	     -7.52178037	      4.45260346	    -19.02550167	    -29.30917819	     17.31013117	      0.30211878	     28.28573776	     24.82479224	     -7.52178037	    -12.15135927	     11.49194588	      0.42107529	      2.72543801	     -6.49709734	    -20.04810963	     29.87605252	    102.49487024	      0.86594736	     -5.17847564	     -9.30067608	     31.34982386	    107.01700132
      0.04166667	    -89.66865228	     10.04227546	   -180.43358030	      0.92704611	      0.44833576	     -0.60885286	      1.03768639	      6.72835919	    -12.76635339	      2.97472288	      0.05191871	     10.76633276	      4.60610190	     -7.50565883	      4.97289487	    -20.84942213	    -30.44187073	     18.53786913	      0.32354685	     28.59969236	     25.93270658	     -7.50565883	    -12.39047169	     12.69237448	      0.77910398	      2.61649791	     -6.73447620	    -20.07945333	     30.01706035	    101.89906865	      0.76547669	     -5.03390761	     -9.26120182	     31.50738225	    106.32715191
      0.05000000	    -89.66714585	      9.90142744	   -180.40251663	      0.92721063	      0.44796465	     -0.60876024	      1.25141305	      6.52575691	    -13.22145642	      3.29840271	      0.05756799	     10.92761874	      4.70319234	     -7.50435054	      4.97315967	    -20.60929303	    -30.38211517	     18.43839875	      0.32181077	     28.43441654	     25.73041331	     -7.50435054	    -12.45992334	     12.53101479	      0.65500598	      2.59631694	     -6.72482801	    -20.08709837	     29.95478882	    101.84312920	      0.55851559	     -5.12231164	     -9.28511338	     31.65450764	    106.35948141
      0.05833333	    -89.66677248	      9.70928660	   -180.46445273	      0.92737026	      0.44768671	     -0.60870804	      1.27675377	      6.29911977	    -13.15462816	      3.29868857	      0.05757298	     10.95290796	      4.62090194	     -7.50199397	      4.88715053	    -20.27401927	    -30.21368292	     18.21149334	      0.31785052	     28.28790445	     25.39911942	     -7.50199397	    -12.53662791	     12.31153064	      0.68985891	      2.49727577	     -6.72222303	    -20.20150680	     29.94752918	    101.77198061	      0.43756490	     -5.17732383	     -9.19535366	     31.67750339	    106.06362545
      0.06666667	    -89.66478733	      9.47613711	   -180.53196805	      0.92754735	      0.44729476	     -0.60862135	      1.35938112	      5.99609450	    -13.17007207	      3.39099140	      0.05918396	     11.00828719	      4.69968631	     -7.50129019	      4.80080925	    -19.88027568	    -30.10782277	     17.95349006	      0.31334751	     28.10420625	     25.08127255	     -7.50129019	    -12.63558844	     12.04062285	      0.72917384	      2.42022252	     -6.71458938	    -20.28484268	     29.92916398	    101.38124411	      0.33972843	     -5.27996435	     -8.92251603	     31.68143168	    105.91948575
      0.07500000	    -89.66230254	      9.41194608	   -180.45875653	      0.92767707	      0.44690270	     -0.60848381	      1.41290050	      5.91264588	    -13.31407437	      3.41930753	      0.05967817	     10.96694183	      4.71841361	     -7.50050488	      4.85259036	    -19.76165352	    -29.91706481	     17.88033696	      0.31207075	     27.99051972	     24.87924153	     -7.50050488	    -12.70906837	     11.96666262	      0.65365548	      2.30557476	     -6.70978918	    -20.45760418	     29.93523500	    101.83150727	      0.20940038	     -5.31292743	     -9.02518990	     31.71218900	    106.15011719
      0.08333333	    -89.66803531	      9.26734735	   -180.45621493	      0.92795215	      0.44647408	     -0.60828339	      1.45505323	      5.72334198	    -13.54556884	      3.46208067	      0.06042471	     11.05951629	      5.09602732	     -7.50026691	      4.78455505	    -19.48026477	    -29.68888675	     17.62432524	      0.30760250	     27.85071640	     24.57956034	     -7.50026691	    -12.81667768	     11.81875552	      0.58177366	      2.20552172	     -6.72143421	    -20.52322071	     30.02225346	    101.92679577	      0.03931072	     -5.32800615	     -9.30243159	     31.77625014	    106.51765198
      0.09166667	    -89.66538993	      8.99307521	   -180.51001005	      0.92826132	      0.44598543	     -0.60798564	      1.44405381	      5.41384311	    -13.27962471	      3.38911124	      0.05915115	     10.98398400	      4.83357092	     -7.50018705	      4.67007583	    -18.98615596	    -29.32912773	     17.28063587	      0.30160399	     27.72089437	     23.99654574	     -7.50018705	    -12.93001486	     11.52407228	      0.58414240	      2.11706908	     -6.77885364	    -20.27613563	     29.93983923	    102.03953048	     -0.08436097	     -5.37763946	     -9.32421969	     31.84019015	    106.31659505
      0.10000000	    -89.65493988	      8.90943934	   -180.62374318	      0.92844195	      0.44544852	     -0.60792873	      1.52592677	      5.28550880	    -13.40986819	      3.47775243	      0.06069823	     11.09593066	      5.18074481	     -7.50009336	      4.63732529	    -18.91354202	    -29.48516986	     17.31361597	      0.30217960	     27.79479705	     24.21356066	     -7.50009336	    -13.06529622	     11.42600925	      0.67212471	      2.03909407	     -6.79687691	    -20.41555151	     29.96790408	    102.10071939	     -0.21982425	     -5.34845425	     -9.56077968	     31.92276340	    106.70245602
      0.10833333	    -89.64485869	      8.88633086	   -180.50646166	      0.92854955	      0.44489160	     -0.60759909	      1.58435619	      5.24488465	    -13.64008767	      3.49883018	      0.06106611	     11.13781097	      5.24833665	     -7.50000402	      4.68362747	    -18.79915462	    -29.05484809	     17.19522980	      0.30011338	     27.68023856	     23.91101806	     -7.50000402	    -13.16865034	     11.42683256	      0.54327984	      1.95134174	     -6.79874322	    -20.39303518	     30.01239861	    101.73984619	     -0.38031530	     -5.37961730	     -9.50230869	     32.02322247	    106.46132882
      0.11666667	    -89.64298930	      8.76906996	   -180.47296065	      0.92874130	      0.44462261	     -0.60737358	      1.63667785	      5.08056369	    -13.82016730	      3.57880302	      0.06246190	     11.32928414	      5.44767936	     -7.50000275	      4.62659215	    -18.54110416	    -28.83392023	     16.94216666	      0.29569659	     27.42731724	     23.58725446	     -7.50000275	    -13.24922037	     11.32451991	      0.48905078	      1.79980466	     -6.79081611	    -20.59655664	     30.05879056	    101.76328315	     -0.60140725	     -5.43018980	     -9.57194850	     32.13864681	    106.30493088
      0.12500000	    -89.64172143	      8.57834073	   -180.48895732	      0.92896605	      0.44448302	     -0.60715291	      1.67693516	      4.81999255	    -13.93445983	      3.64250980	      0.06357379	     11.47539100	      5.58629865	     -7.50000063	      4.51475471	    -18.17695970	    -28.78305961	     16.58271535	      0.28942298	     27.13509345	     23.33770005	     -7.50000063	    -13.30431351	     11.13756149	      0.46262466	      1.67348481	     -6.78479564	    -20.88094300	     30.02096792	    102.08631206	     -0.81224913	     -5.46499641	     -9.75918996	     32.20370253	    106.10419923
